<?xml version="1.0" standalone="no"?>
<!DOCTYPE svg PUBLIC "-//W3C//DTD SVG 20010904//EN"
 "http://www.w3.org/TR/2001/REC-SVG-20010904/DTD/svg10.dtd">
<svg version="1.0" xmlns="http://www.w3.org/2000/svg"
 width="500.000000pt" height="500.000000pt" viewBox="0 0 500.000000 500.000000"
 preserveAspectRatio="xMidYMid meet">
<metadata>
Created by potrace 1.11, written by Peter Selinger 2001-2013
</metadata>
<g transform="translate(0.000000,500.000000) scale(0.100000,-0.100000)"
fill="#000000" stroke="none">
<path d="M2328 4995 c-1 -1 -37 -6 -78 -9 -435 -37 -896 -219 -1265 -499 -219
-167 -433 -399 -587 -637 -179 -277 -319 -638 -362 -935 -4 -23 -8 -51 -11
-63 -19 -102 -26 -479 -11 -612 54 -475 232 -913 524 -1289 159 -205 433 -447
662 -586 257 -156 565 -275 830 -321 25 -4 47 -8 50 -9 3 -1 32 -5 65 -9 32
-4 68 -10 80 -13 11 -3 112 -6 225 -8 271 -4 414 11 660 69 340 81 738 287
1012 524 53 46 221 213 269 267 175 200 355 503 453 767 31 84 89 284 101 351
3 12 7 33 10 47 5 24 10 56 20 130 26 182 26 512 -1 690 -56 375 -186 717
-390 1025 -266 402 -644 722 -1082 914 -88 39 -268 105 -315 116 -12 3 -68 16
-123 29 -56 13 -119 26 -140 29 -89 13 -130 19 -154 24 -29 5 -436 13 -442 8z
m437 -69 c17 -2 50 -7 75 -10 39 -4 147 -25 215 -40 172 -38 392 -120 575
-214 82 -42 344 -212 385 -249 11 -10 36 -31 55 -47 236 -194 463 -481 605
-766 106 -211 194 -476 225 -670 6 -41 14 -86 16 -100 19 -112 25 -418 11
-560 -13 -135 -17 -159 -42 -278 -194 -897 -862 -1605 -1745 -1848 -8 -2 -64
-15 -125 -29 -192 -42 -269 -50 -510 -50 -233 0 -323 8 -505 46 -774 162
-1422 692 -1740 1424 -51 116 -115 311 -136 410 -2 11 -6 29 -8 40 -62 288
-69 652 -17 940 102 573 396 1078 848 1454 180 150 407 288 613 371 30 12 69
28 85 35 97 41 340 106 450 120 28 4 53 9 56 11 3 2 44 6 90 10 46 3 86 8 88
10 5 5 398 -4 436 -10z"/>
<path d="M2248 3825 c-2 -2 -46 -5 -98 -8 -99 -6 -108 -10 -145 -71 -7 -11
-44 -22 -118 -35 -65 -12 -121 -28 -143 -42 -98 -60 -276 -373 -384 -675 -28
-76 -53 -141 -57 -145 -5 -5 -14 -5 -20 -1 -10 6 -9 18 1 52 7 25 11 65 10 89
-3 43 -27 93 -42 88 -4 -1 -8 3 -10 8 -10 30 -34 42 -82 40 -60 -3 -84 -19
-70 -45 14 -26 13 -27 -15 -34 -33 -8 -59 -49 -51 -81 12 -46 64 -94 121 -110
49 -15 54 -19 70 -63 10 -26 21 -51 26 -56 8 -9 -29 -100 -59 -144 -20 -28
-22 -33 -53 -152 -31 -116 -38 -324 -26 -810 5 -234 9 -269 34 -333 36 -92 45
-96 206 -101 l98 -3 6 28 c4 22 10 26 27 23 11 -3 127 -7 256 -10 129 -2 264
-6 300 -8 289 -17 884 -23 1120 -11 286 14 369 13 372 -4 3 -13 22 -16 123
-18 66 -1 134 3 151 8 51 16 77 51 80 111 8 151 14 230 18 237 31 50 40 605
12 746 -2 11 -7 43 -10 70 -10 77 -25 126 -53 174 -14 24 -43 79 -65 123 -36
74 -38 82 -27 116 15 47 17 50 58 57 70 12 107 50 125 127 7 31 -24 68 -57 68
-15 0 -17 5 -12 28 8 40 -12 54 -76 50 -42 -2 -56 -7 -64 -24 -5 -11 -18 -28
-28 -38 -26 -27 -31 -63 -17 -133 7 -35 10 -67 7 -70 -7 -6 -12 4 -113 242
-42 99 -92 207 -112 240 -60 102 -158 238 -199 276 -54 52 -136 95 -188 100
-2 0 -19 5 -37 10 -18 5 -60 14 -93 19 -33 5 -78 12 -100 16 -69 11 -115 14
-304 18 -182 5 -184 5 -208 30 -13 14 -27 27 -31 27 -20 4 -52 6 -54 4z m572
-148 c14 -3 55 -8 92 -12 37 -3 77 -8 90 -10 13 -2 61 -9 108 -16 77 -11 88
-15 118 -48 38 -40 113 -163 171 -279 42 -84 185 -404 195 -438 6 -20 5 -20
-316 -18 -178 2 -676 6 -1108 9 -431 3 -786 7 -787 9 -6 5 65 201 111 308 58
133 106 224 172 323 90 135 95 138 219 151 17 2 46 5 65 8 19 2 73 8 120 11
47 4 87 9 89 11 6 6 632 -3 661 -9z m-1445 -1053 c40 -19 114 -81 225 -188 58
-57 100 -88 132 -100 38 -14 51 -25 67 -59 44 -91 38 -132 -19 -122 -22 4
-115 12 -215 20 -16 1 -43 -4 -60 -10 -24 -9 -44 -8 -102 6 -130 32 -222 92
-254 165 -18 41 -18 42 5 122 27 94 68 169 99 182 27 11 80 4 122 -16z m2397
-31 c20 -18 84 -179 94 -236 6 -36 -7 -69 -41 -104 -27 -27 -125 -82 -182
-103 l-62 -22 -40 19 c-33 17 -50 18 -112 12 -154 -17 -194 -15 -203 6 -3 8 5
43 17 77 21 59 25 63 72 83 27 11 57 27 65 35 174 164 253 232 296 255 29 15
64 7 96 -22z m-1153 -280 l41 -35 133 7 c72 3 159 8 192 10 33 2 104 7 159 10
l98 6 -7 -38 c-10 -58 -30 -83 -68 -84 -17 0 -39 -2 -47 -3 -8 -2 -53 -6 -100
-10 -47 -3 -116 -9 -155 -13 -153 -14 -194 -9 -260 30 -33 21 -67 37 -75 37
-8 0 -40 -16 -71 -35 -62 -38 -31 -36 -304 -20 -49 3 -130 7 -180 10 -49 3
-98 8 -108 11 -17 5 -47 55 -62 102 -7 23 -6 24 52 18 32 -3 96 -8 143 -11 47
-4 105 -8 130 -11 204 -18 277 -15 300 16 3 3 25 18 49 32 52 31 76 26 140
-29z m-1226 -314 c69 -20 107 -36 107 -45 0 -8 -3 -14 -7 -14 -22 0 -223 73
-223 81 0 13 4 12 123 -22z m1870 9 c58 -39 0 -87 -133 -113 -344 -67 -1214
-43 -1314 36 -40 31 -12 74 57 88 15 3 329 6 696 6 610 -1 670 -2 694 -17z
m511 7 c6 -18 12 -15 -114 -55 -107 -34 -120 -36 -120 -17 0 9 42 28 108 50
126 42 118 41 126 22z m-2377 -210 l81 -25 -5 -63 c-3 -34 -9 -70 -15 -80 -5
-11 -7 -30 -4 -43 8 -30 -2 -30 -57 -3 -64 32 -105 67 -123 102 -9 18 -30 47
-48 65 l-31 33 29 26 c33 28 41 28 173 -12z m2414 3 l24 -16 -36 -31 c-26 -22
-38 -41 -43 -70 -7 -44 -38 -76 -111 -111 -50 -24 -66 -20 -47 10 7 11 8 20 3
20 -12 0 -30 48 -34 90 -2 20 -6 41 -10 47 -4 6 17 19 56 32 34 13 77 28 96
35 43 16 72 15 102 -6z m-2046 -93 c39 -3 81 -8 95 -10 78 -12 315 -18 700
-18 379 0 501 3 635 17 17 2 59 6 95 10 36 4 77 8 93 10 64 8 37 -105 -41
-175 -134 -118 -187 -136 -462 -156 -122 -9 -506 -10 -635 0 -318 22 -370 36
-496 133 -87 67 -127 129 -115 178 4 18 12 23 33 20 16 -2 60 -6 98 -9z"/>
<path d="M2319 3668 c-29 -11 -36 -39 -13 -57 16 -13 44 -16 142 -14 68 0 129
4 137 7 19 7 19 55 0 62 -22 9 -243 10 -266 2z"/>
<path d="M2341 3574 c-12 -9 -13 -15 -4 -26 9 -10 37 -14 107 -13 99 1 133 12
108 37 -16 16 -189 17 -211 2z"/>
</g>
</svg>
